<svg xmlns="http://www.w3.org/2000/svg" viewBox="0 0 320 200" role="img" aria-label="TailorPro - Stitching Perfection, Crafting Style">
  <circle cx="160" cy="72" r="56" fill="#0f3d30" stroke="#D4AF37" stroke-width="3"/>
  <circle cx="160" cy="72" r="50" fill="none" stroke="#D4AF37" stroke-width="1" opacity="0.6"/>
  <path d="M128 90 C128 74 134 66 140 60 C142 58 142 52 140 48 C138 44 136 42 136 40 C136 36 140 34 144 36 C146 38 147 42 146 46 L148 50 C150 54 150 58 148 62 L146 90 Z" fill="#D4AF37" opacity="0.9"/>
  <path d="M130 64 C134 70 138 74 142 76" fill="none" stroke="#0f3d30" stroke-width="1.5"/>
  <text x="160" y="84" text-anchor="middle" fill="#D4AF37" font-family="Georgia, 'Times New Roman', serif" font-size="34" font-weight="700" letter-spacing="-2">TP</text>
  <line x1="188" y1="42" x2="188" y2="90" stroke="#D4AF37" stroke-width="2" stroke-linecap="round"/>
  <circle cx="188" cy="40" r="2.5" fill="#D4AF37"/>
  <path d="M188 46 C194 54 196 64 190 72 C186 78 182 84 178 90" fill="none" stroke="#D4AF37" stroke-width="1.5" stroke-linecap="round"/>
  <text x="160" y="148" text-anchor="middle" font-family="Georgia, 'Times New Roman', serif" font-size="36" font-weight="700">
    <tspan fill="#0f3d30">Tailor</tspan>
    <tspan fill="#D4AF37">Pro</tspan>
  </text>
  <line x1="70" y1="162" x2="250" y2="162" stroke="#D4AF37" stroke-width="1"/>
  <circle cx="160" cy="162" r="4" fill="#D4AF37"/>
  <text x="160" y="186" text-anchor="middle" fill="#1a1a1a" font-family="Arial, Helvetica, sans-serif" font-size="10" letter-spacing="2.5">STITCHING PERFECTION, CRAFTING STYLE</text>
</svg>
