<svg xmlns="http://www.w3.org/2000/svg" viewBox="0 0 120 120" role="img" aria-label="TailorPro">
  <circle cx="60" cy="60" r="56" fill="#0f3d30" stroke="#D4AF37" stroke-width="3"/>
  <circle cx="60" cy="60" r="50" fill="none" stroke="#D4AF37" stroke-width="1" opacity="0.6"/>
  <path d="M28 78 C28 62 34 54 40 48 C42 46 42 40 40 36 C38 32 36 30 36 28 C36 24 40 22 44 24 C46 26 47 30 46 34 L48 38 C50 42 50 46 48 50 L46 78 Z" fill="#D4AF37" opacity="0.9"/>
  <path d="M30 52 C34 58 38 62 42 64" fill="none" stroke="#0f3d30" stroke-width="1.5"/>
  <text x="60" y="72" text-anchor="middle" fill="#D4AF37" font-family="Georgia, 'Times New Roman', serif" font-size="34" font-weight="700" letter-spacing="-2">TP</text>
  <line x1="88" y1="30" x2="88" y2="78" stroke="#D4AF37" stroke-width="2" stroke-linecap="round"/>
  <circle cx="88" cy="28" r="2.5" fill="#D4AF37"/>
  <path d="M88 34 C94 42 96 52 90 60 C86 66 82 72 78 78" fill="none" stroke="#D4AF37" stroke-width="1.5" stroke-linecap="round"/>
</svg>
